<svg width="40" height="40" viewBox="0 0 40 40" fill="none" xmlns="http://www.w3.org/2000/svg">
<path d="M31.4884 13.2267C32.7447 15.3598 33.3826 17.8005 33.3306 20.2756C33.2786 22.7506 32.5389 25.1624 31.1941 27.2409C29.8494 29.3194 27.9527 30.9827 25.7164 32.0446C23.4801 33.1064 20.9924 33.525 18.5318 33.2533M8.51176 26.7733C7.25545 24.6402 6.61759 22.1995 6.66957 19.7244C6.72154 17.2494 7.4613 14.8376 8.80604 12.7591C10.1508 10.6806 12.0475 9.01731 14.2838 7.95545C16.5201 6.89359 19.0078 6.47505 21.4684 6.74667" stroke="#F89E6C" stroke-width="2" stroke-linecap="round" stroke-linejoin="round"/>
<path d="M27.0713 12.9287C28.3731 14.2304 30.4836 14.2304 31.7854 12.9287C33.0871 11.6269 33.0871 9.51638 31.7854 8.21463C30.4836 6.91288 28.3731 6.91288 27.0713 8.21463C25.7696 9.51638 25.7696 11.6269 27.0713 12.9287Z" stroke="#F89E6C" stroke-width="2" stroke-linecap="round" stroke-linejoin="round"/>
<path d="M8.21463 31.7854C9.51638 33.0871 11.6269 33.0871 12.9287 31.7854C14.2304 30.4836 14.2304 28.3731 12.9287 27.0713C11.6269 25.7696 9.51638 25.7696 8.21463 27.0713C6.91289 28.3731 6.91289 30.4836 8.21463 31.7854Z" stroke="#F89E6C" stroke-width="2" stroke-linecap="round" stroke-linejoin="round"/>
<path d="M17.643 22.357C18.9447 23.6588 21.0553 23.6588 22.357 22.357C23.6588 21.0553 23.6588 18.9447 22.357 17.643C21.0553 16.3412 18.9447 16.3412 17.643 17.643C16.3412 18.9447 16.3412 21.0553 17.643 22.357Z" stroke="#F89E6C" stroke-width="2" stroke-linecap="round" stroke-linejoin="round"/>
</svg>
