<svg width="40" height="40" viewBox="0 0 40 40" fill="none" xmlns="http://www.w3.org/2000/svg">
<path d="M11.6667 23.3333V21.6667C11.6667 20.7826 11.3155 19.9348 10.6904 19.3096C10.0653 18.6845 9.21745 18.3333 8.33339 18.3333C7.44934 18.3333 6.60149 17.9821 5.97637 17.357C5.35125 16.7319 5.00006 15.8841 5.00006 15V8.33333C5.00006 7.44928 5.35125 6.60143 5.97637 5.97631C6.60149 5.35119 7.44934 5 8.33339 5H20.0001C20.8841 5 21.732 5.35119 22.3571 5.97631C22.9822 6.60143 23.3334 7.44928 23.3334 8.33333V13.3333M20.0001 18.3333H31.6667C32.5508 18.3333 33.3986 18.6845 34.0237 19.3096C34.6489 19.9348 35.0001 20.7826 35.0001 21.6667V28.3333C35.0001 29.2174 34.6489 30.0652 34.0237 30.6904C33.3986 31.3155 32.5508 31.6667 31.6667 31.6667H30.6001C29.9989 31.6667 29.4224 31.9055 28.9973 32.3306C28.5722 32.7556 28.3334 33.3322 28.3334 33.9333C28.3328 34.1571 28.2661 34.3757 28.1415 34.5615C28.0169 34.7474 27.8401 34.8922 27.6334 34.9778C27.4266 35.0633 27.1992 35.0858 26.9797 35.0423C26.7602 34.9988 26.5585 34.8913 26.4001 34.7333L24.3101 32.6433C23.6851 32.0182 22.8374 31.6669 21.9534 31.6667H20.0001C19.116 31.6667 18.2682 31.3155 17.643 30.6904C17.0179 30.0652 16.6667 29.2174 16.6667 28.3333V21.6667C16.6667 20.7826 17.0179 19.9348 17.643 19.3096C18.2682 18.6845 19.116 18.3333 20.0001 18.3333Z" stroke="#F89E6C" stroke-width="2" stroke-linecap="round" stroke-linejoin="round"/>
</svg>
