<svg width="40" height="40" viewBox="0 0 40 40" fill="none" xmlns="http://www.w3.org/2000/svg">
<path d="M34.1668 15.0584C33.14 12.1199 31.2249 9.57346 28.6867 7.77169C26.1485 5.96993 23.1128 5.00201 20.0001 5.00201C16.8874 5.00201 13.8518 5.96993 11.3136 7.77169C8.77538 9.57346 6.86026 12.1199 5.83346 15.0584M34.1668 15.0584C34.7068 16.605 35.0001 18.2684 35.0001 20C35.002 21.6829 34.7203 23.3541 34.1668 24.9434M34.1668 15.0584H5.83346M5.83346 15.0584C5.28014 16.6471 4.99842 18.3177 5.00013 20C4.99833 21.6829 5.28005 23.3541 5.83346 24.9434M34.1668 24.9434C33.14 27.8818 31.2249 30.4283 28.6867 32.23C26.1485 34.0318 23.1128 34.9997 20.0001 34.9997C16.8874 34.9997 13.8518 34.0318 11.3136 32.23C8.77538 30.4283 6.86026 27.8818 5.83346 24.9434M34.1668 24.9434H5.83346" stroke="#F89E6C" stroke-width="2" stroke-linecap="round" stroke-linejoin="round"/>
<path d="M20.0001 35.0001C28.2835 26.7167 28.2835 13.2834 20.0001 5.00006C11.7168 13.2834 11.7168 26.7167 20.0001 35.0001Z" stroke="#F89E6C" stroke-width="2" stroke-linecap="round" stroke-linejoin="round"/>
</svg>
