<svg width="40" height="40" viewBox="0 0 40 40" fill="none" xmlns="http://www.w3.org/2000/svg">
<path d="M26.6667 6.66659H31.6667C32.5507 6.66659 33.3986 7.01777 34.0237 7.6429C34.6488 8.26802 35 9.11586 35 9.99992V11.6666M26.6667 33.3333H31.6667C32.5507 33.3333 33.3986 32.9821 34.0237 32.3569C34.6488 31.7318 35 30.884 35 29.9999V28.3333M15.0017 19.9999H15M35 19.9999H26.6667M26.6667 19.9999L30 16.6666M26.6667 19.9999L30 23.3333M7.37501 32.3799L17.375 35.3799C17.8728 35.5293 18.3987 35.5603 18.9106 35.4703C19.4225 35.3803 19.9062 35.1718 20.3232 34.8616C20.7402 34.5513 21.0788 34.1478 21.3121 33.6834C21.5454 33.2189 21.6668 32.7063 21.6667 32.1866V7.81325C21.6668 7.2935 21.5454 6.78093 21.3121 6.31647C21.0788 5.85201 20.7402 5.44854 20.3232 5.13827C19.9062 4.82801 19.4225 4.61955 18.9106 4.52954C18.3987 4.43954 17.8728 4.47049 17.375 4.61992L7.37501 7.61992C6.68838 7.82603 6.08649 8.24801 5.65866 8.82326C5.23083 9.3985 4.99986 10.0964 5.00001 10.8133V29.1866C4.99986 29.9035 5.23083 30.6013 5.65866 31.1766C6.08649 31.7518 6.68838 32.1738 7.37501 32.3799Z" stroke="#F89E6C" stroke-width="2" stroke-linecap="round" stroke-linejoin="round"/>
</svg>
