<svg width="40" height="40" viewBox="0 0 40 40" fill="none" xmlns="http://www.w3.org/2000/svg">
<path d="M15 21.6666C18.6819 21.6666 21.6667 18.6819 21.6667 15C21.6667 11.3181 18.6819 8.33331 15 8.33331C11.3181 8.33331 8.33337 11.3181 8.33337 15C8.33337 18.6819 11.3181 21.6666 15 21.6666Z" stroke="#F89E6C" stroke-width="2" stroke-linecap="round" stroke-linejoin="round"/>
<path d="M26.6667 31.6666C26.6667 26.1433 21.4434 21.6666 15 21.6666C8.55671 21.6666 3.33337 26.1433 3.33337 31.6666M25 21.6666C26.114 21.6666 27.2102 21.3874 28.1885 20.8545C29.1668 20.3217 29.9959 19.5522 30.6002 18.6164C31.2045 17.6805 31.5647 16.6082 31.6478 15.4973C31.7309 14.3865 31.5343 13.2725 31.076 12.2571C30.6176 11.2418 29.9122 10.3575 29.0241 9.68506C28.136 9.01259 27.0935 8.57339 25.992 8.40758C24.8904 8.24177 23.7649 8.35464 22.7181 8.73587C21.6714 9.11711 20.7369 9.75456 20 10.59" stroke="#F89E6C" stroke-width="2" stroke-linecap="round" stroke-linejoin="round"/>
<path d="M36.6667 31.6667C36.6667 26.1433 31.4433 21.6667 25 21.6667C23.655 21.6667 21.495 21.1783 20 19.6083" stroke="#F89E6C" stroke-width="2" stroke-linecap="round" stroke-linejoin="round"/>
</svg>
