<svg width="40" height="40" viewBox="0 0 40 40" fill="none" xmlns="http://www.w3.org/2000/svg">
<path d="M20 36.6666C29.205 36.6666 36.6667 29.205 36.6667 20C36.6667 10.795 29.205 3.33331 20 3.33331C10.795 3.33331 3.33337 10.795 3.33337 20C3.33337 29.205 10.795 36.6666 20 36.6666Z" stroke="#F89E6C" stroke-width="2" stroke-linecap="round" stroke-linejoin="round"/>
<path d="M25.0001 13.3333H20.0001M20.0001 13.3333H18.3334C17.4493 13.3333 16.6015 13.6845 15.9764 14.3096C15.3513 14.9348 15.0001 15.7826 15.0001 16.6667C15.0001 17.5507 15.3513 18.3986 15.9764 19.0237C16.6015 19.6488 17.4493 20 18.3334 20H21.6667C22.5508 20 23.3986 20.3512 24.0237 20.9763C24.6489 21.6014 25.0001 22.4493 25.0001 23.3333C25.0001 24.2174 24.6489 25.0652 24.0237 25.6904C23.3986 26.3155 22.5508 26.6667 21.6667 26.6667H20.0001M20.0001 13.3333V10M15.0001 26.6667H20.0001M20.0001 26.6667V30" stroke="#F89E6C" stroke-width="2" stroke-linecap="round" stroke-linejoin="round"/>
</svg>
