<svg width="40" height="40" viewBox="0 0 40 40" fill="none" xmlns="http://www.w3.org/2000/svg">
<path d="M21.6668 25.0001V11.6668M21.6668 25.0001L30.8401 30.2418C31.0935 30.3865 31.3805 30.4622 31.6724 30.4612C31.9643 30.4602 32.2507 30.3826 32.5032 30.2361C32.7556 30.0897 32.9652 29.8795 33.1109 29.6266C33.2566 29.3737 33.3333 29.087 33.3334 28.7951V7.87176C33.3333 7.57989 33.2566 7.29317 33.1109 7.04028C32.9652 6.78738 32.7556 6.57718 32.5032 6.43071C32.2507 6.28424 31.9643 6.20662 31.6724 6.20564C31.3805 6.20465 31.0935 6.28033 30.8401 6.42509L21.6668 11.6668M21.6668 25.0001H16.6668M21.6668 11.6668H11.6668C9.89865 11.6668 8.20296 12.3691 6.95271 13.6194C5.70247 14.8696 5.00009 16.5653 5.00009 18.3334C5.00009 20.1015 5.70247 21.7972 6.95271 23.0475C8.20296 24.2977 9.89865 25.0001 11.6668 25.0001M16.6668 25.0001V32.5001C16.6668 33.1631 16.4034 33.799 15.9345 34.2679C15.4657 34.7367 14.8298 35.0001 14.1668 35.0001C13.5037 35.0001 12.8678 34.7367 12.399 34.2679C11.9302 33.799 11.6668 33.1631 11.6668 32.5001V25.0001M16.6668 25.0001H11.6668" stroke="#F89E6C" stroke-width="2" stroke-linecap="round" stroke-linejoin="round"/>
</svg>
