<svg width="40" height="40" viewBox="0 0 40 40" fill="none" xmlns="http://www.w3.org/2000/svg">
<path fill-rule="evenodd" clip-rule="evenodd" d="M8.33337 8.3335C7.00729 8.3335 5.73552 8.86028 4.79784 9.79796C3.86016 10.7356 3.33337 12.0074 3.33337 13.3335V26.6668C3.33337 27.9929 3.86016 29.2647 4.79784 30.2024C5.73552 31.14 7.00729 31.6668 8.33337 31.6668H25C26.3261 31.6668 27.5979 31.14 28.5356 30.2024C29.4733 29.2647 30 27.9929 30 26.6668V24.0235L33.8217 27.8452C34.0548 28.0782 34.3517 28.2369 34.675 28.3011C34.9982 28.3654 35.3333 28.3324 35.6378 28.2063C35.9423 28.0802 36.2026 27.8666 36.3857 27.5926C36.5689 27.3186 36.6666 26.9964 36.6667 26.6668V13.3335C36.6666 13.0039 36.5689 12.6817 36.3857 12.4077C36.2026 12.1337 35.9423 11.9201 35.6378 11.794C35.3333 11.6679 34.9982 11.6349 34.675 11.6992C34.3517 11.7635 34.0548 11.9221 33.8217 12.1552L30 15.9768V13.3335C30 12.0074 29.4733 10.7356 28.5356 9.79796C27.5979 8.86028 26.3261 8.3335 25 8.3335H8.33337Z" fill="#E5E6E9"/>
</svg>
