<svg width="40" height="40" viewBox="0 0 40 40" fill="none" xmlns="http://www.w3.org/2000/svg">
<path fill-rule="evenodd" clip-rule="evenodd" d="M15.04 4.6385C15.1223 4.26839 15.3283 3.9374 15.624 3.70015C15.9197 3.46289 16.2875 3.33356 16.6667 3.3335H23.3333C23.7125 3.33356 24.0803 3.46289 24.376 3.70015C24.6717 3.9374 24.8777 4.26839 24.96 4.6385L25.6933 7.94016C26.36 8.25683 26.995 8.6235 27.5933 9.04016L30.8233 8.0235C31.185 7.90977 31.5747 7.92277 31.928 8.06033C32.2813 8.19789 32.5771 8.45181 32.7667 8.78016L36.1 14.5535C36.2896 14.8819 36.3616 15.2652 36.3041 15.64C36.2465 16.0148 36.0628 16.3588 35.7833 16.6152L33.2883 18.9035C33.3478 19.6334 33.3478 20.3669 33.2883 21.0968L35.7833 23.3852C36.0628 23.6415 36.2465 23.9855 36.3041 24.3603C36.3616 24.7352 36.2896 25.1184 36.1 25.4468L32.7667 31.2202C32.5771 31.5485 32.2813 31.8024 31.928 31.94C31.5747 32.0776 31.185 32.0906 30.8233 31.9768L27.595 30.9602C26.995 31.3768 26.36 31.7435 25.695 32.0602L24.9617 35.3602C24.8797 35.7309 24.6736 36.0624 24.3775 36.3001C24.0814 36.5377 23.713 36.6671 23.3333 36.6668H16.6667C16.2875 36.6668 15.9197 36.5374 15.624 36.3002C15.3283 36.0629 15.1223 35.7319 15.04 35.3618L14.3067 32.0602C13.64 31.7435 13.005 31.3768 12.4067 30.9602L9.17667 31.9768C8.81499 32.0906 8.42534 32.0776 8.07204 31.94C7.71873 31.8024 7.42289 31.5485 7.23334 31.2202L3.90001 25.4468C3.71036 25.1184 3.63838 24.7352 3.69596 24.3603C3.75353 23.9855 3.93721 23.6415 4.21667 23.3852L6.71167 21.0968C6.65216 20.3669 6.65216 19.6334 6.71167 18.9035L4.21667 16.6168C3.93721 16.3605 3.75353 16.0165 3.69596 15.6417C3.63838 15.2668 3.71036 14.8836 3.90001 14.5552L7.23334 8.78183C7.42289 8.45347 7.71873 8.19956 8.07204 8.062C8.42534 7.92443 8.81499 7.91144 9.17667 8.02516L12.405 9.04183C13.005 8.62516 13.64 8.2585 14.305 7.94183L15.0383 4.64183L15.04 4.6385ZM26.1783 17.8452C26.4819 17.5308 26.6499 17.1098 26.6461 16.6728C26.6423 16.2358 26.4671 15.8178 26.158 15.5088C25.849 15.1998 25.431 15.0245 24.994 15.0207C24.557 15.0169 24.136 15.1849 23.8217 15.4885L18.3333 20.9768L16.1783 18.8218C15.864 18.5182 15.443 18.3502 15.006 18.354C14.569 18.3578 14.151 18.5331 13.842 18.8421C13.533 19.1511 13.3577 19.5692 13.3539 20.0062C13.3501 20.4432 13.5181 20.8642 13.8217 21.1785L17.155 24.5118C17.4676 24.8243 17.8914 24.9998 18.3333 24.9998C18.7753 24.9998 19.1991 24.8243 19.5117 24.5118L26.1783 17.8452Z" fill="#E5E6E9"/>
</svg>
