<svg width="40" height="40" viewBox="0 0 40 40" fill="none" xmlns="http://www.w3.org/2000/svg">
<path fill-rule="evenodd" clip-rule="evenodd" d="M3.33331 10C3.33331 8.67392 3.8601 7.40215 4.79778 6.46447C5.73546 5.52678 7.00723 5 8.33331 5H31.6666C32.9927 5 34.2645 5.52678 35.2022 6.46447C36.1399 7.40215 36.6666 8.67392 36.6666 10V30C36.6666 31.3261 36.1399 32.5979 35.2022 33.5355C34.2645 34.4732 32.9927 35 31.6666 35H8.33331C7.00723 35 5.73546 34.4732 4.79778 33.5355C3.8601 32.5979 3.33331 31.3261 3.33331 30V10ZM11.6666 11.6667C11.2246 11.6667 10.8007 11.8423 10.4881 12.1548C10.1756 12.4674 9.99998 12.8913 9.99998 13.3333V20C9.99998 20.442 10.1756 20.8659 10.4881 21.1785C10.8007 21.4911 11.2246 21.6667 11.6666 21.6667H18.3333C18.7753 21.6667 19.1993 21.4911 19.5118 21.1785C19.8244 20.8659 20 20.442 20 20V13.3333C20 12.8913 19.8244 12.4674 19.5118 12.1548C19.1993 11.8423 18.7753 11.6667 18.3333 11.6667H11.6666ZM13.3333 18.3333V15H16.6666V18.3333H13.3333ZM25 11.6667C24.558 11.6667 24.134 11.8423 23.8215 12.1548C23.5089 12.4674 23.3333 12.8913 23.3333 13.3333C23.3333 13.7754 23.5089 14.1993 23.8215 14.5118C24.134 14.8244 24.558 15 25 15H28.3333C28.7753 15 29.1993 14.8244 29.5118 14.5118C29.8244 14.1993 30 13.7754 30 13.3333C30 12.8913 29.8244 12.4674 29.5118 12.1548C29.1993 11.8423 28.7753 11.6667 28.3333 11.6667H25ZM25 18.3333C24.558 18.3333 24.134 18.5089 23.8215 18.8215C23.5089 19.134 23.3333 19.558 23.3333 20C23.3333 20.442 23.5089 20.8659 23.8215 21.1785C24.134 21.4911 24.558 21.6667 25 21.6667H28.3333C28.7753 21.6667 29.1993 21.4911 29.5118 21.1785C29.8244 20.8659 30 20.442 30 20C30 19.558 29.8244 19.134 29.5118 18.8215C29.1993 18.5089 28.7753 18.3333 28.3333 18.3333H25ZM11.6666 25C11.2246 25 10.8007 25.1756 10.4881 25.4882C10.1756 25.8007 9.99998 26.2246 9.99998 26.6667C9.99998 27.1087 10.1756 27.5326 10.4881 27.8452C10.8007 28.1577 11.2246 28.3333 11.6666 28.3333H28.3333C28.7753 28.3333 29.1993 28.1577 29.5118 27.8452C29.8244 27.5326 30 27.1087 30 26.6667C30 26.2246 29.8244 25.8007 29.5118 25.4882C29.1993 25.1756 28.7753 25 28.3333 25H11.6666Z" fill="#E5E6E9"/>
</svg>
