<svg width="40" height="40" viewBox="0 0 40 40" fill="none" xmlns="http://www.w3.org/2000/svg">
<path d="M35 28.3335C35 29.6596 34.4732 30.9313 33.5355 31.869C32.5979 32.8067 31.3261 33.3335 30 33.3335C28.6739 33.3335 27.4021 32.8067 26.4645 31.869C25.5268 30.9313 25 29.6596 25 28.3335C25 27.0074 25.5268 25.7356 26.4645 24.798C27.4021 23.8603 28.6739 23.3335 30 23.3335C31.3261 23.3335 32.5979 23.8603 33.5355 24.798C34.4732 25.7356 35 27.0074 35 28.3335Z" fill="#E5E6E9"/>
<path d="M30 23.3335C28.6739 23.3335 27.4021 23.8603 26.4645 24.798C25.5268 25.7356 25 27.0074 25 28.3335C25 29.6596 25.5268 30.9313 26.4645 31.869C27.4021 32.8067 28.6739 33.3335 30 33.3335C31.3261 33.3335 32.5978 32.8067 33.5355 31.869C34.4732 30.9313 35 29.6596 35 28.3335C35 27.0074 34.4732 25.7356 33.5355 24.798C32.5978 23.8603 31.3261 23.3335 30 23.3335ZM30 23.3335V15.0002C30 14.1161 29.6488 13.2683 29.0237 12.6431C28.3986 12.018 27.5507 11.6668 26.6667 11.6668H25M25 11.6668V8.3335L21.6667 11.6668M25 11.6668H21.6667M25 11.6668V15.0002L21.6667 11.6668" stroke="#E5E6E9" stroke-width="2" stroke-linecap="round" stroke-linejoin="round"/>
<path d="M5 13.3335C5 12.0074 5.52678 10.7356 6.46447 9.79796C7.40215 8.86028 8.67392 8.3335 10 8.3335C11.3261 8.3335 12.5979 8.86028 13.5355 9.79796C14.4732 10.7356 15 12.0074 15 13.3335C15 14.6596 14.4732 15.9313 13.5355 16.869C12.5979 17.8067 11.3261 18.3335 10 18.3335C8.67392 18.3335 7.40215 17.8067 6.46447 16.869C5.52678 15.9313 5 14.6596 5 13.3335Z" fill="#E5E6E9"/>
<path d="M10 18.3335C11.3261 18.3335 12.5979 17.8067 13.5355 16.869C14.4732 15.9313 15 14.6596 15 13.3335C15 12.0074 14.4732 10.7356 13.5355 9.79796C12.5979 8.86028 11.3261 8.3335 10 8.3335C8.67392 8.3335 7.40215 8.86028 6.46447 9.79796C5.52678 10.7356 5 12.0074 5 13.3335C5 14.6596 5.52678 15.9313 6.46447 16.869C7.40215 17.8067 8.67392 18.3335 10 18.3335ZM10 18.3335V26.6668C10 27.5509 10.3512 28.3987 10.9763 29.0239C11.6014 29.649 12.4493 30.0002 13.3333 30.0002H15M15 30.0002V33.3335L18.3333 30.0002M15 30.0002H18.3333M15 30.0002V26.6668L18.3333 30.0002" stroke="#E5E6E9" stroke-width="2" stroke-linecap="round" stroke-linejoin="round"/>
</svg>
