<svg width="40" height="40" viewBox="0 0 40 40" fill="none" xmlns="http://www.w3.org/2000/svg">
<path d="M8.25 27.1064C8.25 27.1064 5.41166 31.3398 7.07166 32.9981C8.73 34.6581 12.9633 31.8198 12.9633 31.8198" stroke="#E5E6E9" stroke-width="2" stroke-linecap="round" stroke-linejoin="round"/>
<path fill-rule="evenodd" clip-rule="evenodd" d="M34.1767 5.89335C34.3757 6.09245 34.521 6.33872 34.5991 6.60918C34.6772 6.87963 34.6856 7.16547 34.6233 7.44002L34.095 9.77668C33.469 12.5383 32.0741 15.0663 30.0717 17.0684L22.3317 24.8083C24.0433 26.9283 24.5983 28.9417 24.165 30.8617C23.7133 32.8617 22.2317 34.3383 21.3117 35.2567L21.2117 35.3567C21.0325 35.5356 20.815 35.6713 20.5756 35.7535C20.3362 35.8358 20.0811 35.8624 19.8299 35.8314C19.5787 35.8004 19.3378 35.7126 19.1255 35.5746C18.9133 35.4366 18.7353 35.2521 18.605 35.035L15.2833 29.4933C15.2134 29.3769 15.1294 29.2694 15.0333 29.1733L10.75 24.8933L9.48333 24.1333L15.2483 17.7284C15.2522 17.7312 15.2561 17.734 15.26 17.7367L23 10C25.0025 7.99727 27.5311 6.60237 30.2933 5.97668L32.63 5.44668C32.9047 5.38467 33.1906 5.39326 33.4611 5.47166C33.7315 5.55006 33.9777 5.69404 34.1767 5.89335ZM13.87 16.77C12.255 15.8284 10.7033 15.5667 9.20833 15.9033C7.20833 16.3567 5.73167 17.8367 4.81333 18.7583L4.71333 18.8567C4.53446 19.0358 4.39874 19.2534 4.31648 19.4928C4.23422 19.7322 4.20759 19.9872 4.23859 20.2384C4.2696 20.4897 4.35743 20.7306 4.49542 20.9428C4.63341 21.1551 4.81794 21.3331 5.035 21.4634L8.02833 23.26L13.87 16.77Z" fill="#E5E6E9"/>
</svg>
